<?xml version="1.0" standalone="no"?><!-- Generator: Gravit.io -->
<svg xmlns="http://www.w3.org/2000/svg" style="isolation:isolate" viewBox="0 0 120 20" width="120" height="20"><defs><clipPath id="_clipPath_wZl5jWgvTXc48vQrIn9ZtKR4ZEDCQdNi"><rect width="120" height="20"/></clipPath></defs><g clip-path="url(#_clipPath_wZl5jWgvTXc48vQrIn9ZtKR4ZEDCQdNi)"><g id="codebuild-status-badge-passing"><path d=" M 53 0 L 115.351 0 L 115.351 0 C 117.376 0 119.018 1.343 119.018 3 L 119.018 17 L 119.018 17 C 119.018 18.657 117.376 20 115.351 20 L 53 20 L 53 0 Z " fill-rule="evenodd" fill="rgb(55,179,17)"/><clipPath id="_clipPath_qKZkRll7HOLPR2WicTaFzdLVqQ9F1CnF"><path d=" M 53 0 L 115.351 0 L 115.351 0 C 117.376 0 119.018 1.343 119.018 3 L 119.018 17 L 119.018 17 C 119.018 18.657 117.376 20 115.351 20 L 53 20 L 53 0 Z " fill-rule="evenodd" fill="rgb(55,179,17)"/></clipPath><g clip-path="url(#_clipPath_qKZkRll7HOLPR2WicTaFzdLVqQ9F1CnF)"><defs><filter id="Ov6KVKINFl83F4J3K5mLfoaMmyzd0rCq" x="-200%" y="-200%" width="400%" height="400%"><feOffset xmlns="http://www.w3.org/2000/svg" in="SourceAlpha" result="offOut" dx="0" dy="1"/><feGaussianBlur xmlns="http://www.w3.org/2000/svg" in="offOut" result="blurOut" stdDeviation="0.5"/><feComponentTransfer xmlns="http://www.w3.org/2000/svg" in="blurOut" result="opacOut"><feFuncA xmlns="http://www.w3.org/2000/svg" type="table" tableValues="0 0.5"/></feComponentTransfer><feBlend xmlns="http://www.w3.org/2000/svg" in="SourceGraphic" in2="opacOut" mode="normal"/></filter></defs><g filter="url(#Ov6KVKINFl83F4J3K5mLfoaMmyzd0rCq)"><g transform="matrix(1,0,0,1,52.509,0)"><text text-anchor="middle" transform="matrix(1,0,0,1,32.616,14.075)" style="font-family:&quot;Verdana&quot;;font-weight:400;font-size:14px;font-style:normal;fill:#ffffff;stroke:none;">97%</text></g></g></g><g id="name=JaCoCo"><g id="name"><linearGradient id="_lgradient_4" x1="0%" y1="50%" x2="6.123233995736766e-15%" y2="150%"><stop offset="0%" stop-opacity="1" style="stop-color:rgb(95,95,95)"/><stop offset="100%" stop-opacity="1" style="stop-color:rgb(75,75,75)"/></linearGradient><path d=" M 1.395 0 L 53 0 L 53 20 L 1.395 20 L 1.395 20 C 0.624 20 0 18.657 0 17 L 0 3 L 0 3 C 0 1.343 0.624 0 1.395 0 Z " fill-rule="evenodd" fill="url(#_lgradient_4)"/><defs><filter id="DydAd6JhDQFX7PqD71JRzO7a5meTnaZl" x="-200%" y="-200%" width="400%" height="400%"><feOffset xmlns="http://www.w3.org/2000/svg" in="SourceAlpha" result="offOut" dx="0" dy="1"/><feGaussianBlur xmlns="http://www.w3.org/2000/svg" in="offOut" result="blurOut" stdDeviation="0.5"/><feComponentTransfer xmlns="http://www.w3.org/2000/svg" in="blurOut" result="opacOut"><feFuncA xmlns="http://www.w3.org/2000/svg" type="table" tableValues="0 0.5"/></feComponentTransfer><feBlend xmlns="http://www.w3.org/2000/svg" in="SourceGraphic" in2="opacOut" mode="normal"/></filter></defs><g filter="url(#DydAd6JhDQFX7PqD71JRzO7a5meTnaZl)"><g transform="matrix(1,0,0,1,5.002,0)"><text transform="matrix(1,0,0,1,0.424,14.075)" style="font-family:&quot;Verdana&quot;;font-weight:400;font-size:14px;font-style:normal;fill:#ffffff;stroke:none;">jacoco</text></g></g></g></g></g></g></svg>
